# xmcd
#
# Track frame offsets: 
#        225
#        23174
#        44481
#        58544
#        79190
#        102849
#        116124
#        135491
#        157295
#        178639
#        197968
#
# Disc length: 2863 seconds
#
# Revision: 0
# Processed by: cddbd v1.5.2PL0 Copyright (c) Steve Scherf et al.
# Submitted via: ExactAudioCopy v0.90a11
#
DISCID=9a0b2c0b
DTITLE=Various Artist - HIMALAYAN(喜马拉雅)
DYEAR=1900
DGENRE=
TTITLE0=Track01_走出喜马拉雅 琼雪卓玛
TTITLE1=Track02_圣洁的康巴
TTITLE2=Track03_欢乐的海洋
TTITLE3=Track04_亲情的呼唤
TTITLE4=Track05_西藏之恋
TTITLE5=Track06_索拉秧卓拉
TTITLE6=Track07_圣洁的心绳
TTITLE7=Track08_布达拉之恋
TTITLE8=Track09_心灵的祈祷
TTITLE9=Track10_向巴拉的天神
TTITLE10=Track11_扎西德勒 荣中尔加
EXTD=喜马拉雅
EXTT0=走出喜马拉雅 琼雪卓玛
EXTT1=圣洁的康巴
EXTT2=欢乐的海洋
EXTT3=亲情的呼唤
EXTT4=西藏之恋
EXTT5=索拉秧卓拉
EXTT6=圣洁的心绳
EXTT7=布达拉之恋
EXTT8=心灵的祈祷
EXTT9=向巴拉的天神
EXTT10=扎西德勒 荣中尔加
PLAYORDER=
